<svg width="32" height="32" viewBox="0 0 32 32" fill="none" xmlns="http://www.w3.org/2000/svg">
<path d="M18.667 13.3335H21.3337V14.3428C22.2372 13.7391 23.2877 13.3921 24.3731 13.3389C25.4585 13.2857 26.5379 13.5282 27.4962 14.0406C28.4545 14.553 29.2556 15.3161 29.8141 16.2483C30.3725 17.1805 30.6673 18.2468 30.667 19.3335V26.6668H28.0003V19.3335C28.0003 17.4268 26.4337 16.0002 24.667 16.0002C22.9003 16.0002 21.3337 17.4268 21.3337 19.3335V26.6668H18.667V13.3335ZM16.0003 5.3335V8.00016H5.33366V14.6668H16.0003V17.3335H5.33366V24.0002H16.0003V26.6668H2.66699V5.3335H16.0003Z" fill="#2D2E83"/>
</svg>
