<svg width="32" height="32" viewBox="0 0 32 32" fill="none" xmlns="http://www.w3.org/2000/svg">
<path d="M22.4398 20.8535C23.3332 20.2669 24.5065 20.9069 24.5065 21.9735V23.6935C24.5065 25.3869 23.1865 27.2002 21.5998 27.7335L17.3465 29.1469C16.5998 29.4002 15.3865 29.4002 14.6532 29.1469L10.3998 27.7335C8.79983 27.2002 7.49316 25.3869 7.49316 23.6935V21.9602C7.49316 20.9069 8.6665 20.2669 9.5465 20.8402L12.2932 22.6269C13.3465 23.3335 14.6798 23.6802 16.0132 23.6802C17.3465 23.6802 18.6798 23.3335 19.7332 22.6269L22.4398 20.8535Z" fill="#2D2E83"/>
<path d="M26.64 8.61357L18.6534 3.37357C17.2134 2.42691 14.84 2.42691 13.4 3.37357L5.37336 8.61357C2.80003 10.2802 2.80003 14.0536 5.37336 15.7336L7.50669 17.1202L13.4 20.9602C14.84 21.9069 17.2134 21.9069 18.6534 20.9602L24.5067 17.1202L26.3334 15.9202V20.0002C26.3334 20.5469 26.7867 21.0002 27.3334 21.0002C27.88 21.0002 28.3334 20.5469 28.3334 20.0002V13.4402C28.8667 11.7202 28.32 9.72024 26.64 8.61357Z" fill="#2D2E83"/>
</svg>
