<svg width="35" height="39" viewBox="0 0 35 39" fill="none" xmlns="http://www.w3.org/2000/svg">
<g filter="url(#filter0_d)">
<path d="M23.9997 17.3335C20.3197 17.3335 17.333 20.3202 17.333 24.0002C17.333 27.6802 20.3197 30.6668 23.9997 30.6668C27.6797 30.6668 30.6663 27.6802 30.6663 24.0002C30.6663 20.3202 27.6797 17.3335 23.9997 17.3335ZM22.8797 25.6935C23.213 26.0268 23.213 26.5735 22.8797 26.9202C22.7063 27.0935 22.493 27.1735 22.2663 27.1735C22.0397 27.1735 21.8263 27.0935 21.653 26.9202L19.3463 24.6135C19.013 24.2802 19.013 23.7335 19.3463 23.3868L21.653 21.0802C21.9863 20.7468 22.533 20.7468 22.8797 21.0802C23.213 21.4135 23.213 21.9602 22.8797 22.3068L21.1863 24.0002L22.8797 25.6935ZM28.6397 24.6135L26.333 26.9202C26.1597 27.0935 25.9463 27.1735 25.7197 27.1735C25.493 27.1735 25.2797 27.0935 25.1063 26.9202C24.773 26.5868 24.773 26.0402 25.1063 25.6935L26.813 24.0002L25.1197 22.3068C24.7863 21.9735 24.7863 21.4268 25.1197 21.0802C25.453 20.7468 25.9997 20.7468 26.3463 21.0802L28.653 23.3868C28.973 23.7335 28.973 24.2668 28.6397 24.6135Z" fill="#2D2E83"/>
<path d="M28 9.33355V15.2936C28 15.7602 27.5467 16.0802 27.12 15.9202C25.64 15.3469 23.9867 15.1602 22.2533 15.5069C18.7867 16.2002 16.0267 19.0402 15.4533 22.5336C15.1067 24.6669 15.5333 26.6802 16.5067 28.3202C16.7733 28.7736 16.4533 29.3336 15.9333 29.3336H10.6667C6 29.3336 4 26.6669 4 22.6669V9.33355C4 5.78689 5.57333 3.29355 9.18667 2.77355C9.57333 2.72022 9.92 3.02689 9.93333 3.42689L9.97333 4.77355C10.0133 6.90689 11.8133 8.66689 13.9733 8.66689H18C20.2 8.66689 22 6.86689 22 4.66689V3.42689C22 3.02689 22.3467 2.70689 22.7333 2.76022C26.4 3.25355 28 5.76022 28 9.33355Z" fill="#2D2E83"/>
<path d="M20.0005 3.99984V4.6665C20.0005 5.75984 19.0938 6.6665 18.0005 6.6665H13.9605C12.8805 6.6665 11.9871 5.79984 11.9605 4.71984L11.9471 4.03984C11.9205 3.27984 12.5205 2.6665 13.2805 2.6665H18.6671C19.4005 2.6665 20.0005 3.2665 20.0005 3.99984Z" fill="#2D2E83"/>
</g>
<defs>
<filter id="filter0_d" x="0" y="2.6665" width="34.6663" height="36.0003" filterUnits="userSpaceOnUse" color-interpolation-filters="sRGB">
<feFlood flood-opacity="0" result="BackgroundImageFix"/>
<feColorMatrix in="SourceAlpha" type="matrix" values="0 0 0 0 0 0 0 0 0 0 0 0 0 0 0 0 0 0 127 0" result="hardAlpha"/>
<feOffset dy="4"/>
<feGaussianBlur stdDeviation="2"/>
<feComposite in2="hardAlpha" operator="out"/>
<feColorMatrix type="matrix" values="0 0 0 0 0 0 0 0 0 0 0 0 0 0 0 0 0 0 0.25 0"/>
<feBlend mode="normal" in2="BackgroundImageFix" result="effect1_dropShadow"/>
<feBlend mode="normal" in="SourceGraphic" in2="effect1_dropShadow" result="shape"/>
</filter>
</defs>
</svg>
