<svg width="32" height="32" viewBox="0 0 32 32" fill="none" xmlns="http://www.w3.org/2000/svg">
<path d="M8.89366 18.6665H5.33366C3.86699 18.6665 2.66699 19.8665 2.66699 21.3332V27.9998C2.66699 28.7332 3.26699 29.3332 4.00033 29.3332H8.89366C9.62699 29.3332 10.227 28.7332 10.227 27.9998V19.9998C10.227 19.2665 9.62699 18.6665 8.89366 18.6665Z" fill="#2D2E83"/>
<path d="M17.7735 13.3335H14.2135C12.7469 13.3335 11.5469 14.5335 11.5469 16.0002V28.0002C11.5469 28.7335 12.1469 29.3335 12.8802 29.3335H19.1069C19.8402 29.3335 20.4402 28.7335 20.4402 28.0002V16.0002C20.4402 14.5335 19.2535 13.3335 17.7735 13.3335Z" fill="#2D2E83"/>
<path d="M26.6668 22.6665H23.1068C22.3734 22.6665 21.7734 23.2665 21.7734 23.9998V27.9998C21.7734 28.7332 22.3734 29.3332 23.1068 29.3332H28.0001C28.7334 29.3332 29.3334 28.7332 29.3334 27.9998V25.3332C29.3334 23.8665 28.1334 22.6665 26.6668 22.6665Z" fill="#2D2E83"/>
<path d="M20.0136 6.46648C20.4269 6.05314 20.5869 5.55981 20.4536 5.13314C20.3202 4.70648 19.9069 4.39981 19.3202 4.30648L18.0402 4.09314C17.9869 4.09314 17.8669 3.99981 17.8402 3.94648L17.1336 2.53314C16.6002 1.45314 15.3869 1.45314 14.8536 2.53314L14.1469 3.94648C14.1336 3.99981 14.0136 4.09314 13.9602 4.09314L12.6802 4.30648C12.0936 4.39981 11.6936 4.70648 11.5469 5.13314C11.4136 5.55981 11.5736 6.05314 11.9869 6.46648L12.9736 7.46648C13.0269 7.50648 13.0669 7.66648 13.0536 7.71981L12.7736 8.94648C12.5602 9.86648 12.9069 10.2798 13.1336 10.4398C13.3602 10.5998 13.8536 10.8131 14.6669 10.3331L15.8669 9.62648C15.9202 9.58648 16.0936 9.58648 16.1469 9.62648L17.3336 10.3331C17.7069 10.5598 18.0136 10.6265 18.2536 10.6265C18.5336 10.6265 18.7336 10.5198 18.8536 10.4398C19.0802 10.2798 19.4269 9.86648 19.2136 8.94648L18.9336 7.71981C18.9202 7.65314 18.9602 7.50648 19.0136 7.46648L20.0136 6.46648Z" fill="#2D2E83"/>
</svg>
